<svg version="1.1" xmlns="http://www.w3.org/2000/svg" xmlns:xlink="http://www.w3.org/1999/xlink" width="88.03774" height="52.11154" viewBox="0,0,88.03774,52.11154"><g transform="translate(-192.93918,-159.85087)"><g data-paper-data="{&quot;isPaintingLayer&quot;:true}" fill="#ffffff" fill-rule="nonzero" stroke="none" stroke-width="0" stroke-linecap="butt" stroke-linejoin="miter" stroke-miterlimit="10" stroke-dasharray="" stroke-dashoffset="0" style="mix-blend-mode: normal"><path d="M192.93918,200.514c0,-2.29976 8.61937,-4.10165 8.61937,-4.10165c0,0 1.87844,-8.06148 3.62842,-8.06148c2.07944,0 3.42835,8.73665 3.42835,8.73665c0,0 9.3616,1.69494 9.3616,3.74342c0,1.76512 -6.21408,0.95074 -8.53645,3.14274c-2.69907,2.54754 -1.69769,7.98874 -3.93656,7.98874c-1.73114,0 -1.53154,-5.59968 -4.4374,-8.29133c-2.40004,-2.22312 -8.12732,-1.40478 -8.12732,-3.15708z"/><path d="M255.93919,172.01401c0,-2.29976 8.61936,-4.10165 8.61936,-4.10165c0,0 1.87844,-8.06148 3.62842,-8.06148c2.07944,0 3.42836,8.73665 3.42836,8.73665c0,0 9.3616,1.69493 9.3616,3.74341c0,1.76512 -6.21408,0.95074 -8.53645,3.14274c-2.69907,2.54755 -1.69769,7.98874 -3.93656,7.98874c-1.73114,0 -1.53154,-5.59967 -4.43741,-8.29132c-2.40005,-2.22312 -8.12732,-1.40479 -8.12732,-3.15708z"/></g></g></svg>