<svg version="1.1" xmlns="http://www.w3.org/2000/svg" xmlns:xlink="http://www.w3.org/1999/xlink" width="99.53774" height="55.11154" viewBox="0,0,99.53774,55.11154"><g transform="translate(-189.43918,-120.35087)"><g data-paper-data="{&quot;isPaintingLayer&quot;:true}" fill="#ffffff" fill-rule="nonzero" stroke="none" stroke-width="0" stroke-linecap="butt" stroke-linejoin="miter" stroke-miterlimit="10" stroke-dasharray="" stroke-dashoffset="0" style="mix-blend-mode: normal"><path d="M189.43919,164.01401c0,-2.29976 8.61936,-4.10165 8.61936,-4.10165c0,0 1.87844,-8.06148 3.62842,-8.06148c2.07944,0 3.42836,8.73665 3.42836,8.73665c0,0 9.3616,1.69493 9.3616,3.74341c0,1.76512 -6.21408,0.95074 -8.53645,3.14274c-2.69906,2.54755 -1.69769,7.98874 -3.93657,7.98874c-1.73114,0 -1.53154,-5.59967 -4.43741,-8.29132c-2.40005,-2.22312 -8.12731,-1.40479 -8.12731,-3.15708z"/><path d="M263.93919,132.51401c0,-2.29976 8.61937,-4.10165 8.61937,-4.10165c0,0 1.87844,-8.06148 3.62842,-8.06148c2.07944,0 3.42836,8.73665 3.42836,8.73665c0,0 9.3616,1.69493 9.3616,3.74341c0,1.76512 -6.21408,0.95074 -8.53645,3.14274c-2.69907,2.54755 -1.69769,7.98874 -3.93657,7.98874c-1.73114,0 -1.53154,-5.59967 -4.4374,-8.29132c-2.40004,-2.22312 -8.12732,-1.40479 -8.12732,-3.15708z"/></g></g></svg>